<svg xmlns="http://www.w3.org/2000/svg" width="256" height="256" viewBox="0 0 256 256">
  <style>
    :root { color: #000; }
    @media (prefers-color-scheme: dark) {
      :root { color: #fff; }
    }
  </style>
  <path d="m235.7 97.48c2.01-5.72 2.92-10.85 2.92-16.14 0-26.73-21.99-49.09-49.53-49.09h-1.25c-13.58 0-25.67 5.84-35.02 15.06-1.53 1.52-3.21 1.9-4.53 2.36-8.35 2.59-14.32 2.83-21.03 2.83-8.01 0-15.22-1.58-22.18-3.57-1.7-0.5-2.97-1.55-3.97-2.64-9.12-8.58-18.99-14.04-33.32-14.04h-1.63c-26.01 0-48.68 22.73-48.68 49.09 0 6.22 0.84 10.93 2.53 16.08-11.06 11.87-16.4 23.49-16.4 38.89 0 32.45 49.5 87.44 123.4 87.44h1.37c60.6 0 124.6-48.76 124.6-87.23 0-14.47-6.61-28.09-17.22-39.04zm-107.7 121.2h-1.25c-62.51 0-118.2-48.3-118.2-82.4 0-14.2 6.67-25.88 16.9-36.96l0.04-0.04c0.42-0.47 0.51-1.16 0.27-1.77-2.06-5.33-3.34-10.45-3.34-16.2 0-24.57 20.36-44.56 44.35-44.56h1.01c13.02 0 22.99 5.51 30.92 13.6 1.51 1.55 3.52 2.78 5.8 3.34 7.51 2.04 14.46 3.45 22.75 3.45 8.62 0 17.16-1.52 25.37-4.71 1.85-0.74 2.99-1.55 4.04-2.72 8.1-7.98 18.29-12.96 31.17-12.96h1.25c24.69 0 44.58 21.2 44.58 44.56 0 6.37-1.55 12.37-3.68 17.33l0.6 0.59c11.2 10.9 17.38 22.47 17.38 37.26 0 32.45-55.76 82.19-120 82.19z" fill="currentColor"/>
  <path d="m66.74 43.89c-21.07 0-38.13 18.52-38.13 37.93 0 19.16 15.57 37.21 38.05 37.21h0.73c20.57 0 37.22-19.57 37.22-37.62 0-20.13-15.48-37.52-36.93-37.52h-0.94zm0.05 70.25c-18.47 0-32.97-15.53-32.97-32.32 0-18.01 13.66-33.91 32.84-33.91h0.73c18.78 0 32.13 16.36 32.13 33.5 0 17.2-13.81 32.73-32.13 32.73h-0.6z" fill="currentColor"/>
  <path d="m188.7 43.89c-20.5 0-37.8 17.19-37.8 38.27 0 18.05 14.51 36.87 37.72 36.87h0.79c20.57 0 36.7-19.11 36.7-37.94 0-19.62-15.96-37.2-36.47-37.2h-0.94zm0.17 70.25c-18.54 0-32.8-15.82-32.8-32.4 0-18.01 13.87-33.54 32.55-33.54h0.71c18.23 0 32.33 15.78 32.33 32.73 0 16.98-13.66 33.21-32.25 33.21h-0.54z" fill="currentColor"/>
  <path d="m62.84 58.91-15.92 40.9h7.86l3.61-9.75h16.87l3.76 9.75h8.48l-16.49-40.9h-8.17zm-1.78 25.43 5.77-17.32 5.96 17.32h-11.73z" fill="currentColor"/>
  <path d="m191.8 57.25h-5.62v9.36h-17.54v25.8h6.03v-2.8h11.51v15.75h5.62v-15.75h11.1v2.36h6.18v-25.36h-17.28v-9.36zm-5.62 26.72h-11.51v-11.54h11.51v11.54zm16.72-11.54v11.54h-11.1v-11.54h11.1z" fill="currentColor"/>
  <path d="m108.1 117.5c-4.67 0-5.66 4.15-5.66 5.63 0 3.1 1.89 5.52 5.94 6.37 4.73 1.03 7.35 4.58 7.96 7.1 2.1-7.95-1.31-19.1-8.24-19.1z" fill="currentColor"/>
  <path d="m147.9 117.5c-6.93 0-9.56 11.15-8.09 18.93 1.29-3.26 3.98-6.61 9.23-7.78 4.05-0.94 4.75-3.8 4.75-5.8 0-2.95-2.39-5.35-5.89-5.35z" fill="currentColor"/>
  <path d="m233.9 136.5c-25.79 13.44-56.2 22.09-106.7 22.09-41.71 0-75.01-8.65-105.4-22.33-2.3-1.04-4.08 1.64-2.81 3.64 19.8 29.89 59.13 60.8 108.4 60.8 44.79 0 82.66-28.96 109.4-60.62 2.05-2.52-0.07-4.82-2.78-3.58zm-106.6 59.57c-20.32 0-36.31-5.43-50.24-12.83 12.88-7.7 29.88-12.18 50.52-12.18 18.5 0 36.46 5.2 51.05 12.54-13.92 7.66-30.95 12.47-51.33 12.47z" fill="currentColor"/>
</svg>
